HIERARCHY
ROOT hip
{
    OFFSET 0.000000 0.000000 0.000000
    CHANNELS 6 Xposition Yposition Zposition Xrotation Zrotation Yrotation 
    JOINT abdomen
    {
        OFFSET 0.000000 0.000000 0.000000
        CHANNELS 3 Xrotation Zrotation Yrotation 
        JOINT chest
        {
            OFFSET 0.000000 0.000000 0.000000
            CHANNELS 3 Xrotation Zrotation Yrotation 
            JOINT neck
            {
                OFFSET 0.000000 0.000000 0.000000
                CHANNELS 3 Xrotation Zrotation Yrotation 
                JOINT head
                {
                    OFFSET 0.000000 0.000000 0.000000
                    CHANNELS 3 Xrotation Zrotation Yrotation
                    JOINT mSkull
                    {
                        OFFSET 0.000000 0.000000 0.000000
                        CHANNELS 3 Xrotation Zrotation Yrotation
                        End Site
                        {
                            OFFSET 0.000000 0.000000 0.000000
                        }
                    }
                    JOINT mEyeLeft
                    {
                        OFFSET 0.000000 0.000000 0.000000
                        CHANNELS 3 Xrotation Zrotation Yrotation
                        End Site
                        {
                            OFFSET 0.000000 0.000000 0.000000
                        }
                    }
                    JOINT mEyeRight
                    {
                        OFFSET 0.000000 0.000000 0.000000
                        CHANNELS 3 Xrotation Zrotation Yrotation
                        End Site
                        {
                            OFFSET 0.000000 0.000000 0.000000
                        }
                    }
                }
            }
            JOINT lCollar
            {
                OFFSET 0.000000 0.000000 0.000000
                CHANNELS 3 Yrotation Zrotation Xrotation 
                JOINT lShldr
                {
                    OFFSET 0.000000 0.000000 0.000000
                    CHANNELS 3 Zrotation Yrotation Xrotation 
                    JOINT lForeArm
                    {
                        OFFSET 0.000000 0.000000 0.000000
                        CHANNELS 3 Yrotation Zrotation Xrotation 
                        JOINT lHand
                        {
                            OFFSET 0.000000 0.000000 0.000000
                            CHANNELS 3 Zrotation Yrotation Xrotation 
                            End Site
                            {
                                OFFSET 0.000000 0.000000 0.000000
                            }
                        }
                    }
                }
            }
            JOINT rCollar
            {
                OFFSET 0.000000 0.000000 0.000000
                CHANNELS 3 Yrotation Zrotation Xrotation 
                JOINT rShldr
                {
                    OFFSET 0.000000 0.000000 0.000000
                    CHANNELS 3 Zrotation Yrotation Xrotation 
                    JOINT rForeArm
                    {
                        OFFSET 0.000000 0.000000 0.000000
                        CHANNELS 3 Yrotation Zrotation Xrotation 
                        JOINT rHand
                        {
                            OFFSET 0.000000 0.000000 0.000000
                            CHANNELS 3 Zrotation Yrotation Xrotation 
                            End Site
                            {
                                OFFSET 0.000000 0.000000 0.000000
                            }
                        }
                    }
                }
            }
        }
    }
    JOINT lThigh
    {
        OFFSET 0.000000 0.000000 0.000000
        CHANNELS 3 Xrotation Zrotation Yrotation 
        JOINT lShin
        {
            OFFSET 0.000000 0.000000 0.000000
            CHANNELS 3 Xrotation Zrotation Yrotation 
            JOINT mAnkleLeft
            {
                OFFSET 0.000000 0.000000 0.000000
                CHANNELS 3 Xrotation Yrotation Zrotation 
                JOINT lFoot
                {
                    OFFSET 0.000000 0.000000 0.000000
                    CHANNELS 3 Xrotation Yrotation Zrotation 
                    JOINT mToeLeft
                    {
                        OFFSET 0.000000 0.000000 0.000000
                        CHANNELS 3 Xrotation Yrotation Zrotation 
                        End Site
                        {
                            OFFSET 0.000000 0.000000 0.000000
                        }
                    }
                }
            }
        }
    }
    JOINT rThigh
    {
        OFFSET 0.000000 0.000000 0.000000
        CHANNELS 3 Xrotation Zrotation Yrotation 
        JOINT rShin
        {
            OFFSET 0.000000 0.000000 0.000000
            CHANNELS 3 Xrotation Zrotation Yrotation 
            JOINT mAnkleRight
            {
                OFFSET 0.000000 0.000000 0.000000
                CHANNELS 3 Xrotation Zrotation Yrotation 
                JOINT rFoot
                {
                    OFFSET 0.000000 0.000000 0.000000
                    CHANNELS 3 Xrotation Yrotation Zrotation 
                    JOINT mToeRight
                    {
                        OFFSET 0.000000 0.000000 0.000000
                        CHANNELS 3 Xrotation Yrotation Zrotation 
                        End Site
                        {
                            OFFSET 0.000000 0.000000 0.000000
                        }
                    }
                }
            }
        }
    }
}
MOTION
Frames:    14
Frame Time:    0.03333333
0.000000  0.000000  0.000000  0.000000  0.000000  0.000000  0.000000  0.000000  0.000000  0.000000  0.000000  0.000000  0.000000  0.000000  0.000000  0.000000  0.000000  0.000000  0.000000  0.000000  0.000000  0.000000  0.000000  0.000000  0.000000  0.000000  0.000000  0.000000  0.000000  0.000000    0.000000  0.000000  0.000000  0.000000  0.000000  0.000000  0.000000  0.000000  0.000000  0.000000  0.000000  0.000000   0.000000  0.000000  0.000000  0.000000  0.000000  0.000000  0.000000  0.000000  0.000000  0.000000  0.000000  0.000000  0.000000  0.000000  0.000000  0.000000  0.000000  0.000000  0.000000  0.000000  0.000000  0.000000  0.000000  0.000000  0.000000  0.000000  0.000000  0.000000  0.000000  0.000000  0.000000  0.000000  0.000000  0.000000  0.000000  0.000000  0.000000  0.000000  0.000000 
1.000000  0.000000  0.000000  1.000000  0.000000  0.000000  1.000000  0.000000  0.000000  1.000000  0.000000  0.000000  1.000000  0.000000  0.000000  1.000000  0.000000  0.000000  1.000000  0.000000  0.000000  1.000000  0.000000  0.000000  1.000000  1.000000  0.000000  1.000000  0.000000  0.000000  -37.000000  0.000000  0.000000  1.000000  0.000000  0.000000  1.000000  0.000000  0.000000  1.000000  0.000000  0.000000  37.000000  0.000000  0.000000  1.000000  0.000000  0.000000  1.000000  0.000000  0.000000  1.000000  0.000000  0.000000  1.000000  0.000000  0.000000  1.000000  0.000000  0.000000  1.000000  0.000000  0.000000  1.000000  0.000000  0.000000  1.000000  0.000000  0.000000  1.000000  0.000000  0.000000  1.000000  0.000000  0.000000  1.000000  0.000000  0.000000  1.000000  0.000000  0.000000 
1.000000  0.000000  0.000000  1.000000  0.000000  0.000000  1.000000  0.000000  0.000000  1.000000  0.000000  0.000000  1.000000  0.000000  0.000000  1.000000  0.000000  0.000000  1.000000  0.000000  0.000000  1.000000  0.000000  0.000000  1.000000  1.000000  0.000000  1.000000  0.000000  0.000000  -37.000000  0.000000  0.000000  1.000000  0.000000  0.000000  1.000000  0.000000  0.000000  1.000000  0.000000  0.000000  37.000000  0.000000  0.000000  1.000000  0.000000  0.000000  1.000000  0.000000  0.000000  1.000000  0.000000  0.000000  1.000000  0.000000  0.000000  1.000000  0.000000  0.000000  1.000000  0.000000  0.000000  1.000000  0.000000  0.000000  1.000000  0.000000  0.000000  1.000000  0.000000  0.000000  1.000000  0.000000  0.000000  1.000000  0.000000  0.000000  1.000000  0.000000  0.000000 
1.000000  0.000000  0.000000  1.000000  0.000000  0.000000  1.000000  0.000000  0.000000  1.000000  0.000000  0.000000  1.000000  0.000000  0.000000  1.000000  0.000000  0.000000  1.000000  0.000000  0.000000  1.000000  0.000000  0.000000  1.000000  1.000000  0.000000  1.000000  0.000000  0.000000  -37.000000  0.000000  0.000000  1.000000  0.000000  0.000000  1.000000  0.000000  0.000000  1.000000  0.000000  0.000000  37.000000  0.000000  0.000000  1.000000  0.000000  0.000000  1.000000  0.000000  0.000000  1.000000  0.000000  0.000000  1.000000  0.000000  0.000000  1.000000  0.000000  0.000000  1.000000  0.000000  0.000000  1.000000  0.000000  0.000000  1.000000  0.000000  0.000000  1.000000  0.000000  0.000000  1.000000  0.000000  0.000000  1.000000  0.000000  0.000000  1.000000  0.000000  0.000000 
1.000000  0.000000  0.000000  1.000000  0.000000  0.000000  1.000000  0.000000  0.000000  1.000000  0.000000  0.000000  1.000000  0.000000  0.000000  1.000000  0.000000  0.000000  1.000000  0.000000  0.000000  1.000000  0.000000  0.000000  1.000000  1.000000  0.000000  1.000000  0.000000  0.000000  -37.000000  0.000000  0.000000  1.000000  0.000000  0.000000  1.000000  0.000000  0.000000  1.000000  0.000000  0.000000  37.000000  0.000000  0.000000  1.000000  0.000000  0.000000  1.000000  0.000000  0.000000  1.000000  0.000000  0.000000  1.000000  0.000000  0.000000  1.000000  0.000000  0.000000  1.000000  0.000000  0.000000  1.000000  0.000000  0.000000  1.000000  0.000000  0.000000  1.000000  0.000000  0.000000  1.000000  0.000000  0.000000  1.000000  0.000000  0.000000  1.000000  0.000000  0.000000 
1.000000  0.000000  0.000000  1.000000  0.000000  0.000000  1.000000  0.000000  0.000000  1.000000  0.000000  0.000000  1.000000  0.000000  0.000000  1.000000  0.000000  0.000000  1.000000  0.000000  0.000000  1.000000  0.000000  0.000000  1.000000  1.000000  0.000000  1.000000  0.000000  0.000000  -37.000000  0.000000  0.000000  1.000000  0.000000  0.000000  1.000000  0.000000  0.000000  1.000000  0.000000  0.000000  37.000000  0.000000  0.000000  1.000000  0.000000  0.000000  1.000000  0.000000  0.000000  1.000000  0.000000  0.000000  1.000000  0.000000  0.000000  1.000000  0.000000  0.000000  1.000000  0.000000  0.000000  1.000000  0.000000  0.000000  1.000000  0.000000  0.000000  1.000000  0.000000  0.000000  1.000000  0.000000  0.000000  1.000000  0.000000  0.000000  1.000000  0.000000  0.000000 
1.000000  0.000000  0.000000  1.000000  0.000000  0.000000  1.000000  0.000000  0.000000  1.000000  0.000000  0.000000  1.000000  0.000000  0.000000  1.000000  0.000000  0.000000  1.000000  0.000000  0.000000  1.000000  0.000000  0.000000  1.000000  1.000000  0.000000  1.000000  0.000000  0.000000  -37.000000  0.000000  0.000000  1.000000  0.000000  0.000000  1.000000  0.000000  0.000000  1.000000  0.000000  0.000000  37.000000  0.000000  0.000000  1.000000  0.000000  0.000000  1.000000  0.000000  0.000000  1.000000  0.000000  0.000000  1.000000  0.000000  0.000000  1.000000  0.000000  0.000000  1.000000  0.000000  0.000000  1.000000  0.000000  0.000000  1.000000  0.000000  0.000000  1.000000  0.000000  0.000000  1.000000  0.000000  0.000000  1.000000  0.000000  0.000000  1.000000  0.000000  0.000000 
1.000000  0.000000  0.000000  1.000000  0.000000  0.000000  1.000000  0.000000  0.000000  1.000000  0.000000  0.000000  1.000000  0.000000  0.000000  1.000000  0.000000  0.000000  1.000000  0.000000  0.000000  1.000000  0.000000  0.000000  1.000000  1.000000  0.000000  1.000000  0.000000  0.000000  -37.000000  0.000000  0.000000  1.000000  0.000000  0.000000  1.000000  0.000000  0.000000  1.000000  0.000000  0.000000  37.000000  0.000000  0.000000  1.000000  0.000000  0.000000  1.000000  0.000000  0.000000  1.000000  0.000000  0.000000  1.000000  0.000000  0.000000  1.000000  0.000000  0.000000  1.000000  0.000000  0.000000  1.000000  0.000000  0.000000  1.000000  0.000000  0.000000  1.000000  0.000000  0.000000  1.000000  0.000000  0.000000  1.000000  0.000000  0.000000  1.000000  0.000000  0.000000 
1.000000  0.000000  0.000000  1.000000  0.000000  0.000000  1.000000  0.000000  0.000000  1.000000  0.000000  0.000000  1.000000  0.000000  0.000000  1.000000  0.000000  0.000000  1.000000  0.000000  0.000000  1.000000  0.000000  0.000000  1.000000  1.000000  0.000000  1.000000  0.000000  0.000000  -37.000000  0.000000  0.000000  1.000000  0.000000  0.000000  1.000000  0.000000  0.000000  1.000000  0.000000  0.000000  37.000000  0.000000  0.000000  1.000000  0.000000  0.000000  1.000000  0.000000  0.000000  1.000000  0.000000  0.000000  1.000000  0.000000  0.000000  1.000000  0.000000  0.000000  1.000000  0.000000  0.000000  1.000000  0.000000  0.000000  1.000000  0.000000  0.000000  1.000000  0.000000  0.000000  1.000000  0.000000  0.000000  1.000000  0.000000  0.000000  1.000000  0.000000  0.000000 
1.000000  0.000000  0.000000  1.000000  0.000000  0.000000  1.000000  0.000000  0.000000  1.000000  0.000000  0.000000  1.000000  0.000000  0.000000  1.000000  0.000000  0.000000  1.000000  0.000000  0.000000  1.000000  0.000000  0.000000  1.000000  1.000000  0.000000  1.000000  0.000000  0.000000  -37.000000  0.000000  0.000000  1.000000  0.000000  0.000000  1.000000  0.000000  0.000000  1.000000  0.000000  0.000000  37.000000  0.000000  0.000000  1.000000  0.000000  0.000000  1.000000  0.000000  0.000000  1.000000  0.000000  0.000000  1.000000  0.000000  0.000000  1.000000  0.000000  0.000000  1.000000  0.000000  0.000000  1.000000  0.000000  0.000000  1.000000  0.000000  0.000000  1.000000  0.000000  0.000000  1.000000  0.000000  0.000000  1.000000  0.000000  0.000000  1.000000  0.000000  0.000000 
1.000000  0.000000  0.000000  1.000000  0.000000  0.000000  1.000000  0.000000  0.000000  1.000000  0.000000  0.000000  1.000000  0.000000  0.000000  1.000000  0.000000  0.000000  1.000000  0.000000  0.000000  1.000000  0.000000  0.000000  1.000000  1.000000  0.000000  1.000000  0.000000  0.000000  -37.000000  0.000000  0.000000  1.000000  0.000000  0.000000  1.000000  0.000000  0.000000  1.000000  0.000000  0.000000  37.000000  0.000000  0.000000  1.000000  0.000000  0.000000  1.000000  0.000000  0.000000  1.000000  0.000000  0.000000  1.000000  0.000000  0.000000  1.000000  0.000000  0.000000  1.000000  0.000000  0.000000  1.000000  0.000000  0.000000  1.000000  0.000000  0.000000  1.000000  0.000000  0.000000  1.000000  0.000000  0.000000  1.000000  0.000000  0.000000  1.000000  0.000000  0.000000 
1.000000  0.000000  0.000000  1.000000  0.000000  0.000000  1.000000  0.000000  0.000000  1.000000  0.000000  0.000000  1.000000  0.000000  0.000000  1.000000  0.000000  0.000000  1.000000  0.000000  0.000000  1.000000  0.000000  0.000000  1.000000  1.000000  0.000000  1.000000  0.000000  0.000000  -37.000000  0.000000  0.000000  1.000000  0.000000  0.000000  1.000000  0.000000  0.000000  1.000000  0.000000  0.000000  37.000000  0.000000  0.000000  1.000000  0.000000  0.000000  1.000000  0.000000  0.000000  1.000000  0.000000  0.000000  1.000000  0.000000  0.000000  1.000000  0.000000  0.000000  1.000000  0.000000  0.000000  1.000000  0.000000  0.000000  1.000000  0.000000  0.000000  1.000000  0.000000  0.000000  1.000000  0.000000  0.000000  1.000000  0.000000  0.000000  1.000000  0.000000  0.000000 
1.000000  0.000000  0.000000  1.000000  0.000000  0.000000  1.000000  0.000000  0.000000  1.000000  0.000000  0.000000  1.000000  0.000000  0.000000  1.000000  0.000000  0.000000  1.000000  0.000000  0.000000  1.000000  0.000000  0.000000  1.000000  1.000000  0.000000  1.000000  0.000000  0.000000  -37.000000  0.000000  0.000000  1.000000  0.000000  0.000000  1.000000  0.000000  0.000000  1.000000  0.000000  0.000000  37.000000  0.000000  0.000000  1.000000  0.000000  0.000000  1.000000  0.000000  0.000000  1.000000  0.000000  0.000000  1.000000  0.000000  0.000000  1.000000  0.000000  0.000000  1.000000  0.000000  0.000000  1.000000  0.000000  0.000000  1.000000  0.000000  0.000000  1.000000  0.000000  0.000000  1.000000  0.000000  0.000000  1.000000  0.000000  0.000000  1.000000  0.000000  0.000000 
1.000000  0.000000  0.000000  1.000000  0.000000  0.000000  1.000000  0.000000  0.000000  1.000000  0.000000  0.000000  1.000000  0.000000  0.000000  1.000000  0.000000  0.000000  1.000000  0.000000  0.000000  1.000000  0.000000  0.000000  1.000000  1.000000  0.000000  1.000000  0.000000  0.000000  -37.000000  0.000000  0.000000  1.000000  0.000000  0.000000  1.000000  0.000000  0.000000  1.000000  0.000000  0.000000  37.000000  0.000000  0.000000  1.000000  0.000000  0.000000  1.000000  0.000000  0.000000  1.000000  0.000000  0.000000  1.000000  0.000000  0.000000  1.000000  0.000000  0.000000  1.000000  0.000000  0.000000  1.000000  0.000000  0.000000  1.000000  0.000000  0.000000  1.000000  0.000000  0.000000  1.000000  0.000000  0.000000  1.000000  0.000000  0.000000  1.000000  0.000000  0.000000 
